<?xml version="1.0" encoding="UTF-8"?>
<svg id="Layer_2" data-name="Layer 2" xmlns="http://www.w3.org/2000/svg" viewBox="0 0 467.81 75.41">
  <defs>
    <style>
      .cls-1 {
        fill: #d7f379;
      }
    </style>
  </defs>
  <g id="Layer_1-2" data-name="Layer 1">
    <g>
      <g>
        <path d="M13.96,41.71v20.11H0V1.65h21.23c4.24,0,7.88.5,10.92,1.51,3.04,1.01,5.55,2.39,7.52,4.15,1.97,1.76,3.42,3.84,4.36,6.24.94,2.4,1.4,4.98,1.4,7.76,0,3-.48,5.75-1.45,8.26-.96,2.51-2.44,4.65-4.42,6.44-1.98,1.79-4.5,3.19-7.54,4.19-3.04,1.01-6.64,1.51-10.8,1.51h-7.27ZM13.96,31.18h7.27c3.63,0,6.25-.87,7.85-2.6,1.6-1.73,2.4-4.16,2.4-7.27,0-1.38-.21-2.63-.62-3.76-.41-1.13-1.04-2.1-1.88-2.91-.84-.81-1.9-1.44-3.18-1.88-1.28-.44-2.8-.66-4.56-.66h-7.27v19.08Z"/>
        <path d="M65.91,0v61.82h-12.8V0h12.8Z"/>
        <path d="M105.81,61.82c-1.21,0-2.13-.17-2.75-.5-.62-.33-1.14-1.02-1.55-2.07l-.91-2.35c-1.07.91-2.11,1.71-3.1,2.39-.99.69-2.02,1.27-3.08,1.76-1.06.48-2.19.84-3.39,1.07-1.2.23-2.53.35-3.99.35-1.96,0-3.73-.26-5.33-.77-1.6-.51-2.95-1.26-4.07-2.26-1.12-1-1.98-2.23-2.58-3.71-.61-1.48-.91-3.18-.91-5.12,0-1.52.39-3.08,1.16-4.68.77-1.6,2.11-3.06,4.01-4.37,1.9-1.31,4.46-2.41,7.68-3.29,3.22-.88,7.28-1.33,12.18-1.33v-1.83c0-2.53-.52-4.36-1.55-5.48-1.03-1.13-2.5-1.69-4.4-1.69-1.51,0-2.75.17-3.72.5-.96.33-1.82.7-2.58,1.11-.76.41-1.49.78-2.21,1.12-.72.33-1.57.5-2.56.5-.88,0-1.63-.21-2.25-.64-.62-.43-1.11-.96-1.47-1.59l-2.31-4.01c2.59-2.28,5.46-3.99,8.61-5.1,3.15-1.12,6.53-1.67,10.14-1.67,2.59,0,4.92.42,7,1.26,2.08.84,3.84,2.01,5.29,3.51,1.45,1.5,2.55,3.28,3.32,5.35.77,2.06,1.16,4.32,1.16,6.77v26.76h-5.86ZM91.1,54.02c1.65,0,3.1-.29,4.34-.87s2.49-1.51,3.76-2.81v-5.86c-2.56,0-4.67.17-6.32.5s-2.96.75-3.92,1.25c-.96.5-1.63,1.07-2,1.71-.37.64-.56,1.33-.56,2.08,0,1.47.4,2.51,1.2,3.1.8.6,1.97.9,3.51.9Z"/>
        <path d="M136.61,72.93c-.39.85-.85,1.48-1.4,1.88-.55.4-1.43.6-2.64.6h-9.58l8.26-17.34-17.1-39.07h11.32c.99,0,1.76.22,2.31.66.55.44.94.96,1.16,1.57l7.02,18.46c.66,1.71,1.2,3.41,1.61,5.12.27-.88.58-1.75.91-2.6.33-.85.65-1.72.95-2.6l6.36-18.38c.22-.63.65-1.16,1.3-1.59.65-.43,1.34-.64,2.09-.64h10.32l-22.88,53.94Z"/>
        <path d="M198.31,13.88c-.41.66-.85,1.16-1.3,1.49s-1.04.5-1.76.5c-.63,0-1.31-.2-2.04-.6-.73-.4-1.56-.85-2.48-1.34-.92-.5-1.98-.94-3.16-1.34-1.18-.4-2.53-.6-4.05-.6-2.62,0-4.56.56-5.84,1.67-1.28,1.11-1.92,2.62-1.92,4.52,0,1.21.39,2.22,1.16,3.02.77.8,1.78,1.49,3.04,2.06,1.25.58,2.68,1.11,4.29,1.59,1.61.48,3.26,1.02,4.94,1.61,1.68.59,3.32,1.29,4.94,2.09,1.61.8,3.04,1.82,4.3,3.06,1.25,1.24,2.26,2.75,3.04,4.52.77,1.78,1.16,3.92,1.16,6.42,0,2.78-.48,5.38-1.45,7.8-.96,2.42-2.36,4.54-4.19,6.34-1.83,1.8-4.09,3.22-6.77,4.25-2.68,1.03-5.73,1.55-9.15,1.55-1.87,0-3.78-.19-5.72-.58-1.94-.39-3.82-.93-5.64-1.63-1.82-.7-3.52-1.53-5.12-2.5-1.6-.96-2.99-2.04-4.17-3.22l4.13-6.53c.3-.5.73-.89,1.28-1.2.55-.3,1.14-.45,1.78-.45.83,0,1.66.26,2.5.78.84.52,1.79,1.1,2.85,1.73,1.06.63,2.28,1.21,3.65,1.73,1.38.52,3,.79,4.87.79,2.53,0,4.5-.56,5.91-1.67,1.4-1.12,2.11-2.88,2.11-5.31,0-1.4-.39-2.55-1.16-3.43-.77-.88-1.78-1.61-3.04-2.19s-2.68-1.09-4.27-1.53-3.24-.93-4.91-1.47c-1.68-.54-3.32-1.2-4.91-1.98s-3.02-1.82-4.27-3.1-2.26-2.88-3.04-4.79c-.77-1.91-1.16-4.27-1.16-7.08,0-2.26.45-4.46,1.36-6.61.91-2.15,2.24-4.06,4.01-5.74,1.76-1.68,3.92-3.02,6.48-4.03,2.56-1,5.49-1.51,8.8-1.51,1.84,0,3.64.14,5.39.43,1.75.29,3.41.72,4.98,1.28,1.57.56,3.04,1.24,4.4,2.02s2.58,1.67,3.65,2.66l-3.47,6.48Z"/>
        <path d="M239.12,61.82c-1.21,0-2.13-.17-2.75-.5-.62-.33-1.14-1.02-1.55-2.07l-.91-2.35c-1.07.91-2.11,1.71-3.1,2.39-.99.69-2.02,1.27-3.08,1.76-1.06.48-2.19.84-3.39,1.07-1.2.23-2.53.35-3.99.35-1.96,0-3.73-.26-5.33-.77-1.6-.51-2.95-1.26-4.07-2.26-1.12-1-1.98-2.23-2.58-3.71-.61-1.48-.91-3.18-.91-5.12,0-1.52.39-3.08,1.16-4.68.77-1.6,2.11-3.06,4.01-4.37,1.9-1.31,4.46-2.41,7.68-3.29,3.22-.88,7.28-1.33,12.18-1.33v-1.83c0-2.53-.52-4.36-1.55-5.48-1.03-1.13-2.5-1.69-4.4-1.69-1.51,0-2.75.17-3.72.5-.96.33-1.82.7-2.58,1.11-.76.41-1.49.78-2.21,1.12-.72.33-1.57.5-2.56.5-.88,0-1.63-.21-2.25-.64-.62-.43-1.11-.96-1.47-1.59l-2.31-4.01c2.59-2.28,5.46-3.99,8.61-5.1,3.15-1.12,6.53-1.67,10.14-1.67,2.59,0,4.92.42,7,1.26,2.08.84,3.84,2.01,5.29,3.51,1.45,1.5,2.55,3.28,3.32,5.35.77,2.06,1.16,4.32,1.16,6.77v26.76h-5.86ZM224.41,54.02c1.65,0,3.1-.29,4.34-.87s2.49-1.51,3.76-2.81v-5.86c-2.56,0-4.67.17-6.32.5s-2.96.75-3.92,1.25c-.96.5-1.63,1.07-2,1.71-.37.64-.56,1.33-.56,2.08,0,1.47.4,2.51,1.2,3.1.8.6,1.97.9,3.51.9Z"/>
        <path d="M255.96,61.82V27.79l-2.81-.58c-.96-.22-1.74-.56-2.33-1.03-.59-.47-.89-1.16-.89-2.06v-5.04h6.03v-2.44c0-2.45.39-4.67,1.18-6.65.79-1.98,1.91-3.68,3.39-5.08,1.47-1.4,3.27-2.49,5.39-3.26,2.12-.77,4.53-1.16,7.23-1.16,1.05,0,2.02.06,2.91.19s1.82.32,2.79.6l-.25,6.24c-.03.44-.14.81-.35,1.09-.21.29-.46.52-.76.7-.3.18-.64.31-1.01.39-.37.08-.74.12-1.09.12-1.13,0-2.13.11-3.01.33-.88.22-1.62.61-2.21,1.18-.59.56-1.04,1.31-1.34,2.23s-.45,2.09-.45,3.49v2.02h10.08v8.76h-9.66v33.99h-12.8Z"/>
        <path d="M302.3,18.34c2.84,0,5.43.44,7.79,1.32,2.35.88,4.38,2.16,6.07,3.84,1.69,1.68,3.01,3.74,3.96,6.17.95,2.44,1.42,5.2,1.42,8.28,0,.96-.04,1.75-.12,2.35-.08.61-.23,1.09-.46,1.45-.22.36-.52.61-.89.74-.37.14-.85.21-1.42.21h-24.7c.41,3.58,1.5,6.17,3.26,7.78,1.76,1.61,4.03,2.42,6.81,2.42,1.49,0,2.77-.18,3.84-.54,1.07-.36,2.03-.76,2.87-1.2.84-.44,1.61-.84,2.31-1.2.7-.36,1.44-.54,2.21-.54,1.02,0,1.79.37,2.31,1.12l3.72,4.58c-1.32,1.51-2.75,2.75-4.27,3.7s-3.1,1.69-4.71,2.23c-1.61.54-3.22.91-4.83,1.11-1.61.21-3.15.31-4.6.31-3,0-5.82-.49-8.45-1.47-2.63-.98-4.93-2.43-6.9-4.36-1.97-1.93-3.52-4.32-4.67-7.19-1.14-2.86-1.71-6.19-1.71-9.99,0-2.86.49-5.58,1.47-8.14s2.38-4.8,4.21-6.73c1.83-1.93,4.05-3.46,6.65-4.58,2.6-1.13,5.54-1.69,8.82-1.69ZM302.55,27.17c-2.45,0-4.36.7-5.74,2.09-1.38,1.39-2.29,3.39-2.73,6.01h15.98c0-1.02-.13-2.01-.39-2.97s-.69-1.82-1.28-2.58c-.59-.76-1.37-1.37-2.33-1.84-.96-.47-2.13-.7-3.51-.7Z"/>
      </g>
      <g>
        <path d="M369.52,57.94c.75,0,1.41-.06,1.99-.19.58-.13,1.12-.3,1.63-.51v-3.54h-2.31c-.34,0-.61-.09-.8-.27s-.29-.41-.29-.69v-2.98h8.3v9.85c-.6.44-1.22.82-1.87,1.13-.65.32-1.33.57-2.07.78-.73.2-1.51.35-2.34.45-.83.1-1.72.14-2.67.14-1.71,0-3.29-.3-4.74-.9s-2.71-1.44-3.77-2.5-1.9-2.32-2.5-3.78c-.6-1.46-.9-3.04-.9-4.75s.29-3.34.86-4.8c.58-1.46,1.4-2.72,2.48-3.77,1.07-1.06,2.37-1.88,3.89-2.47,1.52-.59,3.22-.88,5.1-.88.97,0,1.88.08,2.74.24.85.16,1.64.38,2.36.66.72.28,1.38.61,1.98.99.6.38,1.13.8,1.6,1.25l-1.57,2.39c-.15.22-.33.4-.54.53s-.44.19-.68.19c-.32,0-.65-.11-.99-.32-.43-.26-.83-.48-1.21-.67s-.77-.34-1.16-.46c-.4-.12-.81-.2-1.25-.26-.44-.05-.93-.08-1.47-.08-1.02,0-1.93.18-2.74.54-.81.36-1.5.86-2.07,1.51s-1.01,1.43-1.32,2.35-.46,1.93-.46,3.05c0,1.24.17,2.34.51,3.3s.81,1.77,1.42,2.43,1.32,1.17,2.15,1.51c.83.35,1.73.52,2.71.52Z"/>
        <path d="M403.06,61.85h-4.2c-.47,0-.86-.11-1.16-.33-.3-.22-.52-.5-.63-.84l-1.38-4.07h-8.88l-1.38,4.07c-.11.3-.32.57-.62.81s-.69.36-1.14.36h-4.23l9.03-23.34h5.54l9.04,23.34ZM388.07,52.93h6.38l-2.15-6.39c-.14-.41-.3-.88-.49-1.43s-.37-1.15-.55-1.79c-.17.65-.35,1.25-.53,1.81-.18.55-.35,1.04-.51,1.44l-2.15,6.36Z"/>
        <path d="M417.51,52.44c.2.44.39.89.57,1.35.18-.47.37-.93.58-1.37.2-.44.41-.87.62-1.29l5.99-11.8c.11-.2.22-.36.33-.47.11-.11.24-.2.38-.25.14-.05.3-.08.47-.08h4.75v23.32h-4.77v-13.42c0-.65.03-1.36.1-2.12l-6.18,12c-.19.37-.45.66-.78.85-.33.19-.7.29-1.11.29h-.74c-.42,0-.79-.1-1.11-.29-.33-.19-.58-.47-.78-.85l-6.21-12.01c.04.37.07.75.1,1.11s.03.71.03,1.02v13.42h-4.77v-23.32h4.75c.18,0,.33.03.47.08.14.05.26.14.38.25.11.11.22.27.33.47l6.01,11.85c.21.41.42.83.62,1.27Z"/>
        <path d="M450.06,38.51v4.17h-9.58v5.45h7.34v4h-7.34v5.56h9.58v4.17h-15.03v-23.34h15.03Z"/>
        <path d="M466.15,43.25c-.16.26-.33.45-.5.58-.18.13-.4.19-.68.19-.25,0-.51-.08-.79-.23s-.6-.33-.96-.52-.77-.37-1.23-.52c-.46-.16-.98-.23-1.57-.23-1.01,0-1.77.22-2.27.65-.5.43-.75,1.02-.75,1.75,0,.47.15.86.45,1.17s.69.58,1.18.8c.49.22,1.04.43,1.67.62.62.19,1.26.39,1.91.62.65.23,1.29.5,1.91.81s1.18.7,1.67,1.19c.49.48.88,1.06,1.18,1.75.3.69.45,1.52.45,2.49,0,1.08-.19,2.09-.56,3.03s-.92,1.76-1.63,2.46-1.59,1.25-2.63,1.65-2.22.6-3.55.6c-.73,0-1.46-.07-2.22-.22s-1.48-.36-2.19-.63c-.7-.27-1.37-.6-1.99-.97-.62-.37-1.16-.79-1.62-1.25l1.6-2.53c.12-.19.28-.35.5-.46.21-.12.44-.18.69-.18.32,0,.64.1.97.3.33.2.69.43,1.11.67.41.25.88.47,1.42.67.53.2,1.16.3,1.89.3.98,0,1.75-.22,2.29-.65.54-.43.82-1.12.82-2.06,0-.54-.15-.99-.45-1.33-.3-.34-.69-.62-1.18-.85-.49-.22-1.04-.42-1.66-.59s-1.25-.36-1.91-.57-1.29-.46-1.91-.77c-.62-.3-1.17-.71-1.66-1.2-.49-.5-.88-1.12-1.18-1.86-.3-.74-.45-1.66-.45-2.75,0-.88.18-1.73.53-2.56.35-.83.87-1.58,1.55-2.23.68-.65,1.52-1.17,2.51-1.56s2.13-.58,3.41-.58c.72,0,1.41.06,2.09.17.68.11,1.32.28,1.93.5.61.22,1.18.48,1.71.79.53.3,1,.65,1.42,1.03l-1.35,2.51Z"/>
      </g>
      <circle class="cls-1" cx="340.08" cy="50.94" r="10.5"/>
    </g>
  </g>
</svg>